<svg xmlns="http://www.w3.org/2000/svg" xmlns:xlink="http://www.w3.org/1999/xlink" width="1827.737" height="792.93" viewBox="0 0 1827.737 792.93">
  <defs>
    <linearGradient id="linear-gradient" x1="-0.12" y1="-0.622" x2="1" y2="1" gradientUnits="objectBoundingBox">
      <stop offset="0" stop-color="#66d097"/>
      <stop offset="1" stop-color="#93a5ff" stop-opacity="0"/>
    </linearGradient>
  </defs>
  <g id="Groupe_116" data-name="Groupe 116" transform="translate(-20.631 -272.5)">
    <path id="Dotted_Square_1" data-name="Dotted Square 1" d="M377.553,404.987a5.447,5.447,0,1,1,5.438,5.75A5.6,5.6,0,0,1,377.553,404.987Zm-41.951,0a5.447,5.447,0,1,1,5.439,5.75A5.6,5.6,0,0,1,335.6,404.987Zm-41.95,0a5.447,5.447,0,1,1,5.438,5.75A5.6,5.6,0,0,1,293.653,404.987Zm-41.95,0a5.447,5.447,0,1,1,5.438,5.75A5.6,5.6,0,0,1,251.7,404.987Zm-41.951,0a5.447,5.447,0,1,1,5.438,5.75A5.6,5.6,0,0,1,209.752,404.987Zm-41.951,0a5.447,5.447,0,1,1,5.438,5.75A5.6,5.6,0,0,1,167.8,404.987Zm-41.95,0a5.447,5.447,0,1,1,5.438,5.75A5.6,5.6,0,0,1,125.851,404.987Zm-41.951,0a5.447,5.447,0,1,1,5.438,5.75A5.6,5.6,0,0,1,83.9,404.987Zm-41.95,0a5.447,5.447,0,1,1,5.438,5.75A5.6,5.6,0,0,1,41.95,404.987Zm-41.95,0a5.6,5.6,0,0,1,5.438-5.75,5.759,5.759,0,0,1,0,11.5A5.6,5.6,0,0,1,0,404.987Zm377.554-44.36a5.447,5.447,0,1,1,5.438,5.751A5.6,5.6,0,0,1,377.553,360.627Zm-41.951,0a5.447,5.447,0,1,1,5.439,5.751A5.6,5.6,0,0,1,335.6,360.627Zm-41.95,0a5.447,5.447,0,1,1,5.438,5.751A5.6,5.6,0,0,1,293.653,360.627Zm-41.95,0a5.447,5.447,0,1,1,5.438,5.751A5.6,5.6,0,0,1,251.7,360.627Zm-41.951,0a5.447,5.447,0,1,1,5.438,5.751A5.6,5.6,0,0,1,209.752,360.627Zm-41.951,0a5.447,5.447,0,1,1,5.438,5.751A5.6,5.6,0,0,1,167.8,360.627Zm-41.95,0a5.447,5.447,0,1,1,5.438,5.751A5.6,5.6,0,0,1,125.851,360.627Zm-41.951,0a5.447,5.447,0,1,1,5.438,5.751A5.6,5.6,0,0,1,83.9,360.627Zm-41.95,0a5.447,5.447,0,1,1,5.438,5.751A5.6,5.6,0,0,1,41.95,360.627Zm-41.95,0a5.6,5.6,0,0,1,5.438-5.75,5.76,5.76,0,0,1,0,11.5A5.6,5.6,0,0,1,0,360.627Zm377.554-44.359a5.447,5.447,0,1,1,5.438,5.75A5.6,5.6,0,0,1,377.553,316.267Zm-41.951,0a5.447,5.447,0,1,1,5.439,5.75A5.6,5.6,0,0,1,335.6,316.267Zm-41.95,0a5.447,5.447,0,1,1,5.438,5.75A5.6,5.6,0,0,1,293.653,316.267Zm-41.95,0a5.447,5.447,0,1,1,5.438,5.75A5.6,5.6,0,0,1,251.7,316.267Zm-41.951,0a5.447,5.447,0,1,1,5.438,5.75A5.6,5.6,0,0,1,209.752,316.267Zm-41.951,0a5.447,5.447,0,1,1,5.438,5.75A5.6,5.6,0,0,1,167.8,316.267Zm-41.95,0a5.447,5.447,0,1,1,5.438,5.75A5.6,5.6,0,0,1,125.851,316.267Zm-41.951,0a5.447,5.447,0,1,1,5.438,5.75A5.6,5.6,0,0,1,83.9,316.267Zm-41.95,0a5.447,5.447,0,1,1,5.438,5.75A5.6,5.6,0,0,1,41.95,316.267Zm-41.95,0a5.6,5.6,0,0,1,5.438-5.75,5.759,5.759,0,0,1,0,11.5A5.6,5.6,0,0,1,0,316.267Zm377.554-44.36a5.447,5.447,0,1,1,5.438,5.751A5.6,5.6,0,0,1,377.553,271.908Zm-41.951,0a5.447,5.447,0,1,1,5.439,5.751A5.6,5.6,0,0,1,335.6,271.908Zm-41.95,0a5.447,5.447,0,1,1,5.438,5.751A5.6,5.6,0,0,1,293.653,271.908Zm-41.95,0a5.447,5.447,0,1,1,5.438,5.751A5.6,5.6,0,0,1,251.7,271.908Zm-41.951,0a5.447,5.447,0,1,1,5.438,5.751A5.6,5.6,0,0,1,209.752,271.908Zm-41.951,0a5.447,5.447,0,1,1,5.438,5.751A5.6,5.6,0,0,1,167.8,271.908Zm-41.95,0a5.447,5.447,0,1,1,5.438,5.751A5.6,5.6,0,0,1,125.851,271.908Zm-41.951,0a5.447,5.447,0,1,1,5.438,5.751A5.6,5.6,0,0,1,83.9,271.908Zm-41.95,0a5.447,5.447,0,1,1,5.438,5.751A5.6,5.6,0,0,1,41.95,271.908Zm-41.95,0a5.6,5.6,0,0,1,5.438-5.75,5.76,5.76,0,0,1,0,11.5A5.6,5.6,0,0,1,0,271.908Zm377.554-44.359a5.447,5.447,0,1,1,5.438,5.75A5.6,5.6,0,0,1,377.553,227.548Zm-41.951,0a5.447,5.447,0,1,1,5.439,5.75A5.6,5.6,0,0,1,335.6,227.548Zm-41.95,0a5.447,5.447,0,1,1,5.438,5.75A5.6,5.6,0,0,1,293.653,227.548Zm-41.95,0a5.447,5.447,0,1,1,5.438,5.75A5.6,5.6,0,0,1,251.7,227.548Zm-41.951,0a5.447,5.447,0,1,1,5.438,5.75A5.6,5.6,0,0,1,209.752,227.548Zm-41.951,0a5.447,5.447,0,1,1,5.438,5.75A5.6,5.6,0,0,1,167.8,227.548Zm-41.95,0a5.447,5.447,0,1,1,5.438,5.75A5.6,5.6,0,0,1,125.851,227.548Zm-41.951,0a5.447,5.447,0,1,1,5.438,5.75A5.6,5.6,0,0,1,83.9,227.548Zm-41.95,0a5.447,5.447,0,1,1,5.438,5.75A5.6,5.6,0,0,1,41.95,227.548Zm-41.95,0a5.6,5.6,0,0,1,5.438-5.75,5.759,5.759,0,0,1,0,11.5A5.6,5.6,0,0,1,0,227.548Zm377.554-44.36a5.447,5.447,0,1,1,5.438,5.751A5.6,5.6,0,0,1,377.553,183.189Zm-41.951,0a5.447,5.447,0,1,1,5.439,5.751A5.6,5.6,0,0,1,335.6,183.189Zm-41.95,0a5.447,5.447,0,1,1,5.438,5.751A5.6,5.6,0,0,1,293.653,183.189Zm-41.95,0a5.447,5.447,0,1,1,5.438,5.751A5.6,5.6,0,0,1,251.7,183.189Zm-41.951,0a5.447,5.447,0,1,1,5.438,5.751A5.6,5.6,0,0,1,209.752,183.189Zm-41.951,0a5.447,5.447,0,1,1,5.438,5.751A5.6,5.6,0,0,1,167.8,183.189Zm-41.95,0a5.447,5.447,0,1,1,5.438,5.751A5.6,5.6,0,0,1,125.851,183.189Zm-41.951,0a5.447,5.447,0,1,1,5.438,5.751A5.6,5.6,0,0,1,83.9,183.189Zm-41.95,0a5.447,5.447,0,1,1,5.438,5.751A5.6,5.6,0,0,1,41.95,183.189Zm-41.95,0a5.6,5.6,0,0,1,5.438-5.75,5.76,5.76,0,0,1,0,11.5A5.6,5.6,0,0,1,0,183.189Zm377.554-44.359a5.447,5.447,0,1,1,5.438,5.75A5.6,5.6,0,0,1,377.553,138.829Zm-41.951,0a5.447,5.447,0,1,1,5.439,5.75A5.6,5.6,0,0,1,335.6,138.829Zm-41.95,0a5.447,5.447,0,1,1,5.438,5.75A5.6,5.6,0,0,1,293.653,138.829Zm-41.95,0a5.447,5.447,0,1,1,5.438,5.75A5.6,5.6,0,0,1,251.7,138.829Zm-41.951,0a5.447,5.447,0,1,1,5.438,5.75A5.6,5.6,0,0,1,209.752,138.829Zm-41.951,0a5.447,5.447,0,1,1,5.438,5.75A5.6,5.6,0,0,1,167.8,138.829Zm-41.95,0a5.447,5.447,0,1,1,5.438,5.75A5.6,5.6,0,0,1,125.851,138.829Zm-41.951,0a5.447,5.447,0,1,1,5.438,5.75A5.6,5.6,0,0,1,83.9,138.829Zm-41.95,0a5.447,5.447,0,1,1,5.438,5.75A5.6,5.6,0,0,1,41.95,138.829Zm-41.95,0a5.6,5.6,0,0,1,5.438-5.75,5.759,5.759,0,0,1,0,11.5A5.6,5.6,0,0,1,0,138.829Zm377.554-44.36a5.447,5.447,0,1,1,5.438,5.751A5.6,5.6,0,0,1,377.553,94.469Zm-41.951,0a5.447,5.447,0,1,1,5.439,5.751A5.6,5.6,0,0,1,335.6,94.469Zm-41.95,0a5.447,5.447,0,1,1,5.438,5.751A5.6,5.6,0,0,1,293.653,94.469Zm-41.95,0a5.447,5.447,0,1,1,5.438,5.751A5.6,5.6,0,0,1,251.7,94.469Zm-41.951,0a5.447,5.447,0,1,1,5.438,5.751A5.6,5.6,0,0,1,209.752,94.469Zm-41.951,0a5.447,5.447,0,1,1,5.438,5.751A5.6,5.6,0,0,1,167.8,94.469Zm-41.95,0a5.447,5.447,0,1,1,5.438,5.751A5.6,5.6,0,0,1,125.851,94.469Zm-41.951,0a5.447,5.447,0,1,1,5.438,5.751A5.6,5.6,0,0,1,83.9,94.469Zm-41.95,0a5.447,5.447,0,1,1,5.438,5.751A5.6,5.6,0,0,1,41.95,94.469ZM0,94.469a5.6,5.6,0,0,1,5.438-5.75,5.76,5.76,0,0,1,0,11.5A5.6,5.6,0,0,1,0,94.469ZM377.553,50.11a5.447,5.447,0,1,1,5.438,5.75A5.6,5.6,0,0,1,377.553,50.11Zm-41.951,0a5.447,5.447,0,1,1,5.439,5.75A5.6,5.6,0,0,1,335.6,50.11Zm-41.95,0a5.447,5.447,0,1,1,5.438,5.75A5.6,5.6,0,0,1,293.653,50.11Zm-41.95,0a5.447,5.447,0,1,1,5.438,5.75A5.6,5.6,0,0,1,251.7,50.11Zm-41.951,0a5.447,5.447,0,1,1,5.438,5.75A5.6,5.6,0,0,1,209.752,50.11Zm-41.951,0a5.447,5.447,0,1,1,5.438,5.75A5.6,5.6,0,0,1,167.8,50.11Zm-41.95,0a5.447,5.447,0,1,1,5.438,5.75A5.6,5.6,0,0,1,125.851,50.11Zm-41.951,0a5.447,5.447,0,1,1,5.438,5.75A5.6,5.6,0,0,1,83.9,50.11Zm-41.95,0a5.447,5.447,0,1,1,5.438,5.75A5.6,5.6,0,0,1,41.95,50.11ZM0,50.11a5.6,5.6,0,0,1,5.438-5.75,5.759,5.759,0,0,1,0,11.5A5.6,5.6,0,0,1,0,50.11ZM377.553,5.75a5.447,5.447,0,1,1,10.876,0,5.447,5.447,0,1,1-10.876,0Zm-41.951,0a5.447,5.447,0,1,1,10.877,0,5.447,5.447,0,1,1-10.877,0Zm-41.95,0a5.447,5.447,0,1,1,10.876,0,5.447,5.447,0,1,1-10.876,0Zm-41.95,0a5.447,5.447,0,1,1,10.876,0,5.447,5.447,0,1,1-10.876,0Zm-41.951,0a5.447,5.447,0,1,1,10.876,0,5.447,5.447,0,1,1-10.876,0Zm-41.951,0a5.447,5.447,0,1,1,10.877,0,5.447,5.447,0,1,1-10.877,0Zm-41.95,0a5.447,5.447,0,1,1,10.876,0,5.447,5.447,0,1,1-10.876,0ZM83.9,5.75a5.447,5.447,0,1,1,10.876,0,5.447,5.447,0,1,1-10.876,0Zm-41.95,0a5.447,5.447,0,1,1,10.876,0,5.447,5.447,0,1,1-10.876,0ZM0,5.75A5.6,5.6,0,0,1,5.438,0a5.6,5.6,0,0,1,5.438,5.75A5.6,5.6,0,0,1,5.438,11.5,5.6,5.6,0,0,1,0,5.75Z" transform="translate(1437.632 660.93) rotate(-90)" fill="url(#linear-gradient)"/>
    <path id="Dotted_Square_1-2" data-name="Dotted Square 1" d="M480.585,539.083c0-4.226,3.1-7.655,6.922-7.655s6.922,3.429,6.922,7.655-3.1,7.654-6.922,7.654S480.585,543.31,480.585,539.083Zm-53.4,0c0-4.226,3.1-7.655,6.923-7.655s6.922,3.429,6.922,7.655-3.1,7.654-6.922,7.654S427.187,543.31,427.187,539.083Zm-53.4,0c0-4.226,3.1-7.655,6.922-7.655s6.922,3.429,6.922,7.655-3.1,7.654-6.922,7.654S373.789,543.31,373.789,539.083Zm-53.4,0c0-4.226,3.1-7.655,6.922-7.655s6.922,3.429,6.922,7.655-3.1,7.654-6.922,7.654S320.39,543.31,320.39,539.083Zm-53.4,0c0-4.226,3.1-7.655,6.922-7.655s6.922,3.429,6.922,7.655-3.1,7.654-6.922,7.654S266.992,543.31,266.992,539.083Zm-53.4,0c0-4.226,3.1-7.655,6.922-7.655s6.922,3.429,6.922,7.655-3.1,7.654-6.922,7.654S213.593,543.31,213.593,539.083Zm-53.4,0c0-4.226,3.1-7.655,6.922-7.655s6.922,3.429,6.922,7.655-3.1,7.654-6.922,7.654S160.2,543.31,160.2,539.083Zm-53.4,0c0-4.226,3.1-7.655,6.922-7.655s6.922,3.429,6.922,7.655-3.1,7.654-6.922,7.654S106.8,543.31,106.8,539.083Zm-53.4,0c0-4.226,3.1-7.655,6.922-7.655s6.922,3.429,6.922,7.655-3.1,7.654-6.922,7.654S53.4,543.31,53.4,539.083Zm-53.4,0c0-4.226,3.1-7.655,6.922-7.655s6.922,3.429,6.922,7.655-3.1,7.654-6.922,7.654S0,543.31,0,539.083Zm480.586-59.048c0-4.226,3.1-7.655,6.922-7.655s6.922,3.429,6.922,7.655-3.1,7.655-6.922,7.655S480.585,484.263,480.585,480.035Zm-53.4,0c0-4.226,3.1-7.655,6.923-7.655s6.922,3.429,6.922,7.655-3.1,7.655-6.922,7.655S427.187,484.263,427.187,480.035Zm-53.4,0c0-4.226,3.1-7.655,6.922-7.655s6.922,3.429,6.922,7.655-3.1,7.655-6.922,7.655S373.789,484.263,373.789,480.035Zm-53.4,0c0-4.226,3.1-7.655,6.922-7.655s6.922,3.429,6.922,7.655-3.1,7.655-6.922,7.655S320.39,484.263,320.39,480.035Zm-53.4,0c0-4.226,3.1-7.655,6.922-7.655s6.922,3.429,6.922,7.655-3.1,7.655-6.922,7.655S266.992,484.263,266.992,480.035Zm-53.4,0c0-4.226,3.1-7.655,6.922-7.655s6.922,3.429,6.922,7.655-3.1,7.655-6.922,7.655S213.593,484.263,213.593,480.035Zm-53.4,0c0-4.226,3.1-7.655,6.922-7.655s6.922,3.429,6.922,7.655-3.1,7.655-6.922,7.655S160.2,484.263,160.2,480.035Zm-53.4,0c0-4.226,3.1-7.655,6.922-7.655s6.922,3.429,6.922,7.655-3.1,7.655-6.922,7.655S106.8,484.263,106.8,480.035Zm-53.4,0c0-4.226,3.1-7.655,6.922-7.655s6.922,3.429,6.922,7.655-3.1,7.655-6.922,7.655S53.4,484.263,53.4,480.035Zm-53.4,0c0-4.226,3.1-7.655,6.922-7.655s6.922,3.429,6.922,7.655-3.1,7.655-6.922,7.655S0,484.263,0,480.035Zm480.586-59.047c0-4.226,3.1-7.655,6.922-7.655s6.922,3.428,6.922,7.655-3.1,7.655-6.922,7.655S480.585,425.215,480.585,420.987Zm-53.4,0c0-4.226,3.1-7.655,6.923-7.655s6.922,3.428,6.922,7.655-3.1,7.655-6.922,7.655S427.187,425.215,427.187,420.987Zm-53.4,0c0-4.226,3.1-7.655,6.922-7.655s6.922,3.428,6.922,7.655-3.1,7.655-6.922,7.655S373.789,425.215,373.789,420.987Zm-53.4,0c0-4.226,3.1-7.655,6.922-7.655s6.922,3.428,6.922,7.655-3.1,7.655-6.922,7.655S320.39,425.215,320.39,420.987Zm-53.4,0c0-4.226,3.1-7.655,6.922-7.655s6.922,3.428,6.922,7.655-3.1,7.655-6.922,7.655S266.992,425.215,266.992,420.987Zm-53.4,0c0-4.226,3.1-7.655,6.922-7.655s6.922,3.428,6.922,7.655-3.1,7.655-6.922,7.655S213.593,425.215,213.593,420.987Zm-53.4,0c0-4.226,3.1-7.655,6.922-7.655s6.922,3.428,6.922,7.655-3.1,7.655-6.922,7.655S160.2,425.215,160.2,420.987Zm-53.4,0c0-4.226,3.1-7.655,6.922-7.655s6.922,3.428,6.922,7.655-3.1,7.655-6.922,7.655S106.8,425.215,106.8,420.987Zm-53.4,0c0-4.226,3.1-7.655,6.922-7.655s6.922,3.428,6.922,7.655-3.1,7.655-6.922,7.655S53.4,425.215,53.4,420.987Zm-53.4,0c0-4.226,3.1-7.655,6.922-7.655s6.922,3.428,6.922,7.655-3.1,7.655-6.922,7.655S0,425.215,0,420.987ZM480.585,361.94c0-4.226,3.1-7.655,6.922-7.655s6.922,3.429,6.922,7.655-3.1,7.655-6.922,7.655S480.585,366.168,480.585,361.94Zm-53.4,0c0-4.226,3.1-7.655,6.923-7.655s6.922,3.429,6.922,7.655-3.1,7.655-6.922,7.655S427.187,366.168,427.187,361.94Zm-53.4,0c0-4.226,3.1-7.655,6.922-7.655s6.922,3.429,6.922,7.655-3.1,7.655-6.922,7.655S373.789,366.168,373.789,361.94Zm-53.4,0c0-4.226,3.1-7.655,6.922-7.655s6.922,3.429,6.922,7.655-3.1,7.655-6.922,7.655S320.39,366.168,320.39,361.94Zm-53.4,0c0-4.226,3.1-7.655,6.922-7.655s6.922,3.429,6.922,7.655-3.1,7.655-6.922,7.655S266.992,366.168,266.992,361.94Zm-53.4,0c0-4.226,3.1-7.655,6.922-7.655s6.922,3.429,6.922,7.655-3.1,7.655-6.922,7.655S213.593,366.168,213.593,361.94Zm-53.4,0c0-4.226,3.1-7.655,6.922-7.655s6.922,3.429,6.922,7.655-3.1,7.655-6.922,7.655S160.2,366.168,160.2,361.94Zm-53.4,0c0-4.226,3.1-7.655,6.922-7.655s6.922,3.429,6.922,7.655-3.1,7.655-6.922,7.655S106.8,366.168,106.8,361.94Zm-53.4,0c0-4.226,3.1-7.655,6.922-7.655s6.922,3.429,6.922,7.655-3.1,7.655-6.922,7.655S53.4,366.168,53.4,361.94Zm-53.4,0c0-4.226,3.1-7.655,6.922-7.655s6.922,3.429,6.922,7.655-3.1,7.655-6.922,7.655S0,366.168,0,361.94Zm480.586-59.047c0-4.226,3.1-7.655,6.922-7.655s6.922,3.428,6.922,7.655-3.1,7.655-6.922,7.655S480.585,307.12,480.585,302.892Zm-53.4,0c0-4.226,3.1-7.655,6.923-7.655s6.922,3.428,6.922,7.655-3.1,7.655-6.922,7.655S427.187,307.12,427.187,302.892Zm-53.4,0c0-4.226,3.1-7.655,6.922-7.655s6.922,3.428,6.922,7.655-3.1,7.655-6.922,7.655S373.789,307.12,373.789,302.892Zm-53.4,0c0-4.226,3.1-7.655,6.922-7.655s6.922,3.428,6.922,7.655-3.1,7.655-6.922,7.655S320.39,307.12,320.39,302.892Zm-53.4,0c0-4.226,3.1-7.655,6.922-7.655s6.922,3.428,6.922,7.655-3.1,7.655-6.922,7.655S266.992,307.12,266.992,302.892Zm-53.4,0c0-4.226,3.1-7.655,6.922-7.655s6.922,3.428,6.922,7.655-3.1,7.655-6.922,7.655S213.593,307.12,213.593,302.892Zm-53.4,0c0-4.226,3.1-7.655,6.922-7.655s6.922,3.428,6.922,7.655-3.1,7.655-6.922,7.655S160.2,307.12,160.2,302.892Zm-53.4,0c0-4.226,3.1-7.655,6.922-7.655s6.922,3.428,6.922,7.655-3.1,7.655-6.922,7.655S106.8,307.12,106.8,302.892Zm-53.4,0c0-4.226,3.1-7.655,6.922-7.655s6.922,3.428,6.922,7.655-3.1,7.655-6.922,7.655S53.4,307.12,53.4,302.892Zm-53.4,0c0-4.226,3.1-7.655,6.922-7.655s6.922,3.428,6.922,7.655-3.1,7.655-6.922,7.655S0,307.12,0,302.892Zm480.586-59.048c0-4.226,3.1-7.655,6.922-7.655s6.922,3.429,6.922,7.655-3.1,7.655-6.922,7.655S480.585,248.073,480.585,243.845Zm-53.4,0c0-4.226,3.1-7.655,6.923-7.655s6.922,3.429,6.922,7.655-3.1,7.655-6.922,7.655S427.187,248.073,427.187,243.845Zm-53.4,0c0-4.226,3.1-7.655,6.922-7.655s6.922,3.429,6.922,7.655-3.1,7.655-6.922,7.655S373.789,248.073,373.789,243.845Zm-53.4,0c0-4.226,3.1-7.655,6.922-7.655s6.922,3.429,6.922,7.655-3.1,7.655-6.922,7.655S320.39,248.073,320.39,243.845Zm-53.4,0c0-4.226,3.1-7.655,6.922-7.655s6.922,3.429,6.922,7.655-3.1,7.655-6.922,7.655S266.992,248.073,266.992,243.845Zm-53.4,0c0-4.226,3.1-7.655,6.922-7.655s6.922,3.429,6.922,7.655-3.1,7.655-6.922,7.655S213.593,248.073,213.593,243.845Zm-53.4,0c0-4.226,3.1-7.655,6.922-7.655s6.922,3.429,6.922,7.655-3.1,7.655-6.922,7.655S160.2,248.073,160.2,243.845Zm-53.4,0c0-4.226,3.1-7.655,6.922-7.655s6.922,3.429,6.922,7.655-3.1,7.655-6.922,7.655S106.8,248.073,106.8,243.845Zm-53.4,0c0-4.226,3.1-7.655,6.922-7.655s6.922,3.429,6.922,7.655-3.1,7.655-6.922,7.655S53.4,248.073,53.4,243.845Zm-53.4,0c0-4.226,3.1-7.655,6.922-7.655s6.922,3.429,6.922,7.655-3.1,7.655-6.922,7.655S0,248.073,0,243.845ZM480.585,184.8c0-4.226,3.1-7.655,6.922-7.655s6.922,3.428,6.922,7.655-3.1,7.655-6.922,7.655S480.585,189.025,480.585,184.8Zm-53.4,0c0-4.226,3.1-7.655,6.923-7.655s6.922,3.428,6.922,7.655-3.1,7.655-6.922,7.655S427.187,189.025,427.187,184.8Zm-53.4,0c0-4.226,3.1-7.655,6.922-7.655s6.922,3.428,6.922,7.655-3.1,7.655-6.922,7.655S373.789,189.025,373.789,184.8Zm-53.4,0c0-4.226,3.1-7.655,6.922-7.655s6.922,3.428,6.922,7.655-3.1,7.655-6.922,7.655S320.39,189.025,320.39,184.8Zm-53.4,0c0-4.226,3.1-7.655,6.922-7.655s6.922,3.428,6.922,7.655-3.1,7.655-6.922,7.655S266.992,189.025,266.992,184.8Zm-53.4,0c0-4.226,3.1-7.655,6.922-7.655s6.922,3.428,6.922,7.655-3.1,7.655-6.922,7.655S213.593,189.025,213.593,184.8Zm-53.4,0c0-4.226,3.1-7.655,6.922-7.655s6.922,3.428,6.922,7.655-3.1,7.655-6.922,7.655S160.2,189.025,160.2,184.8Zm-53.4,0c0-4.226,3.1-7.655,6.922-7.655s6.922,3.428,6.922,7.655-3.1,7.655-6.922,7.655S106.8,189.025,106.8,184.8Zm-53.4,0c0-4.226,3.1-7.655,6.922-7.655s6.922,3.428,6.922,7.655-3.1,7.655-6.922,7.655S53.4,189.025,53.4,184.8ZM0,184.8c0-4.226,3.1-7.655,6.922-7.655s6.922,3.428,6.922,7.655-3.1,7.655-6.922,7.655S0,189.025,0,184.8ZM480.585,125.75c0-4.226,3.1-7.655,6.922-7.655s6.922,3.429,6.922,7.655-3.1,7.655-6.922,7.655S480.585,129.978,480.585,125.75Zm-53.4,0c0-4.226,3.1-7.655,6.923-7.655s6.922,3.429,6.922,7.655-3.1,7.655-6.922,7.655S427.187,129.978,427.187,125.75Zm-53.4,0c0-4.226,3.1-7.655,6.922-7.655s6.922,3.429,6.922,7.655-3.1,7.655-6.922,7.655S373.789,129.978,373.789,125.75Zm-53.4,0c0-4.226,3.1-7.655,6.922-7.655s6.922,3.429,6.922,7.655-3.1,7.655-6.922,7.655S320.39,129.978,320.39,125.75Zm-53.4,0c0-4.226,3.1-7.655,6.922-7.655s6.922,3.429,6.922,7.655-3.1,7.655-6.922,7.655S266.992,129.978,266.992,125.75Zm-53.4,0c0-4.226,3.1-7.655,6.922-7.655s6.922,3.429,6.922,7.655-3.1,7.655-6.922,7.655S213.593,129.978,213.593,125.75Zm-53.4,0c0-4.226,3.1-7.655,6.922-7.655s6.922,3.429,6.922,7.655-3.1,7.655-6.922,7.655S160.2,129.978,160.2,125.75Zm-53.4,0c0-4.226,3.1-7.655,6.922-7.655s6.922,3.429,6.922,7.655-3.1,7.655-6.922,7.655S106.8,129.978,106.8,125.75Zm-53.4,0c0-4.226,3.1-7.655,6.922-7.655s6.922,3.429,6.922,7.655-3.1,7.655-6.922,7.655S53.4,129.978,53.4,125.75Zm-53.4,0c0-4.226,3.1-7.655,6.922-7.655s6.922,3.429,6.922,7.655-3.1,7.655-6.922,7.655S0,129.978,0,125.75ZM480.585,66.7c0-4.226,3.1-7.655,6.922-7.655s6.922,3.428,6.922,7.655-3.1,7.655-6.922,7.655S480.585,70.93,480.585,66.7Zm-53.4,0c0-4.226,3.1-7.655,6.923-7.655s6.922,3.428,6.922,7.655-3.1,7.655-6.922,7.655S427.187,70.93,427.187,66.7Zm-53.4,0c0-4.226,3.1-7.655,6.922-7.655s6.922,3.428,6.922,7.655-3.1,7.655-6.922,7.655S373.789,70.93,373.789,66.7Zm-53.4,0c0-4.226,3.1-7.655,6.922-7.655s6.922,3.428,6.922,7.655-3.1,7.655-6.922,7.655S320.39,70.93,320.39,66.7Zm-53.4,0c0-4.226,3.1-7.655,6.922-7.655s6.922,3.428,6.922,7.655-3.1,7.655-6.922,7.655S266.992,70.93,266.992,66.7Zm-53.4,0c0-4.226,3.1-7.655,6.922-7.655s6.922,3.428,6.922,7.655-3.1,7.655-6.922,7.655S213.593,70.93,213.593,66.7Zm-53.4,0c0-4.226,3.1-7.655,6.922-7.655s6.922,3.428,6.922,7.655-3.1,7.655-6.922,7.655S160.2,70.93,160.2,66.7Zm-53.4,0c0-4.226,3.1-7.655,6.922-7.655s6.922,3.428,6.922,7.655-3.1,7.655-6.922,7.655S106.8,70.93,106.8,66.7Zm-53.4,0c0-4.226,3.1-7.655,6.922-7.655s6.922,3.428,6.922,7.655-3.1,7.655-6.922,7.655S53.4,70.93,53.4,66.7ZM0,66.7c0-4.226,3.1-7.655,6.922-7.655s6.922,3.428,6.922,7.655-3.1,7.655-6.922,7.655S0,70.93,0,66.7ZM480.585,7.654c0-4.226,3.1-7.655,6.922-7.655s6.922,3.429,6.922,7.655-3.1,7.655-6.922,7.655S480.585,11.882,480.585,7.654Zm-53.4,0c0-4.226,3.1-7.655,6.923-7.655s6.922,3.429,6.922,7.655-3.1,7.655-6.922,7.655S427.187,11.882,427.187,7.654Zm-53.4,0c0-4.226,3.1-7.655,6.922-7.655s6.922,3.429,6.922,7.655-3.1,7.655-6.922,7.655S373.789,11.882,373.789,7.654Zm-53.4,0c0-4.226,3.1-7.655,6.922-7.655s6.922,3.429,6.922,7.655-3.1,7.655-6.922,7.655S320.39,11.882,320.39,7.654Zm-53.4,0c0-4.226,3.1-7.655,6.922-7.655s6.922,3.429,6.922,7.655-3.1,7.655-6.922,7.655S266.992,11.882,266.992,7.654Zm-53.4,0c0-4.226,3.1-7.655,6.922-7.655s6.922,3.429,6.922,7.655-3.1,7.655-6.922,7.655S213.593,11.882,213.593,7.654Zm-53.4,0c0-4.226,3.1-7.655,6.922-7.655s6.922,3.429,6.922,7.655-3.1,7.655-6.922,7.655S160.2,11.882,160.2,7.654Zm-53.4,0C106.8,3.429,109.9,0,113.719,0s6.922,3.429,6.922,7.655-3.1,7.655-6.922,7.655S106.8,11.882,106.8,7.654Zm-53.4,0C53.4,3.429,56.5,0,60.321,0s6.922,3.429,6.922,7.655-3.1,7.655-6.922,7.655S53.4,11.882,53.4,7.654ZM0,7.654C0,3.429,3.1,0,6.922,0s6.922,3.429,6.922,7.655-3.1,7.655-6.922,7.655S0,11.882,0,7.654Z" transform="translate(20.632 1065.43) rotate(-90)" fill="url(#linear-gradient)"/>
  </g>
</svg>
